<svg width="341" height="45" viewBox="0 0 341 45" fill="none" xmlns="http://www.w3.org/2000/svg">
<g filter="url(#filter0_d_586_2373)">
<path d="M7.87891 7.69141C9.75391 7.06641 12.1465 6.76367 15.0566 6.7832C15.3301 6.8418 15.5938 6.89063 15.8477 6.92969C16.9219 7.30078 18.5137 7.82813 20.623 8.51172C21.7559 7.80859 22.7422 7.45703 23.582 7.45703V17.5352C20.6523 13.8242 18.0742 11.5781 15.8477 10.7969V10.8555H15.7598C12.459 10.6016 10.8184 11.5195 10.8379 13.6094C10.3496 16.6562 11.3359 18.5703 13.7969 19.3516C17.2539 20.2109 19.7734 21.373 21.3555 22.8379L20.418 24.7715L22.0586 23.5703C22.9375 24.6641 23.377 25.8945 23.377 27.2617C23.4941 32.3008 20.5547 34.8008 14.5586 34.7617C11.2773 35.1914 8.50391 34.7227 6.23828 33.3555C5.08594 34.0586 4.08984 34.4102 3.25 34.4102V24.332C6.72656 28.707 9.68555 31.0117 12.127 31.2461C12.3223 31.2656 12.5078 31.2754 12.6836 31.2754C15.418 31.2168 16.6094 30.0254 16.2578 27.7012C16.5898 25.6895 15.2324 24.1074 12.1855 22.9551C6.22852 21.4707 3.13281 18.4531 2.89844 13.9023C2.91797 12.7695 3.16211 11.7734 3.63086 10.9141C4.58789 10.4844 5.26172 9.9375 5.65234 9.27344C6.16016 8.80469 6.88281 8.57031 7.82031 8.57031L7.87891 7.69141ZM33.8066 7.04688H40.1348C41.7754 13.1992 43.0547 17.7012 43.9727 20.5527L43.709 20.9922V21.4609C43.709 21.6172 43.7969 21.6953 43.9727 21.6953L43.709 22.1641V23.0723C43.709 23.6777 44.3438 24.6641 45.6133 26.0312C46.5312 30.3086 47.2637 32.4473 47.8105 32.4473C49.8223 33.834 50.8281 34.5957 50.8281 34.7324C50.8281 35.0449 50.6523 35.2012 50.3008 35.2012C48.2891 35.0449 47.2832 34.8203 47.2832 34.5273C46.5996 34.8203 45.8672 34.9668 45.0859 34.9668H41.2188C40.8086 34.9668 40.4473 35.0449 40.1348 35.2012C39.8027 35.0449 39.4316 34.9668 39.0215 34.9668H37.3809V34.5273C37.752 34.5273 38.5723 33.834 39.8418 32.4473C39.8418 31.8027 39.666 31.041 39.3145 30.1621C39.666 30.1621 39.8418 30.0059 39.8418 29.6934C39.2949 29.6934 38.8359 28.6289 38.4648 26.5H32.6934C31.5996 30.0938 31.0527 32.1543 31.0527 32.6816C31.2871 32.6816 32.0195 33.2969 33.25 34.5273V34.9668H30.4961C29.7539 34.9668 29.0215 35.0449 28.2988 35.2012C27.5957 35.0449 26.8633 34.9668 26.1016 34.9668H23.377V34.5273C25.8379 33.1211 27.3906 30.9824 28.0352 28.1113L33.543 10.0059V9.77148C32.0781 8.77539 31.3457 8.0918 31.3457 7.7207C32.5566 7.27148 33.377 7.04688 33.8066 7.04688ZM35.7402 16.4219C34.627 19.957 34.0703 22.0957 34.0703 22.8379C34.8125 22.8379 35.1836 23.1406 35.1836 23.7461L37.3809 22.6035L36.0039 16.4219H35.7402ZM63.6895 20.875V9.94727L60.6426 6.92969H74.2363C74.2363 7.08594 73.0352 8.0918 70.6328 9.94727V12.4961C70.6328 13.2188 70.3594 13.7559 69.8125 14.1074C70.3594 15.416 70.6328 16.3438 70.6328 16.8906L70.3691 22.0469C70.252 26.5 68.8262 29.4297 66.0918 30.8359C66.0918 32.6719 63.8555 34.0391 59.3828 34.9375C52.7031 34.9375 48.8652 30.6211 47.8691 21.9883C48.5918 20.6992 48.6895 19.3516 48.1621 17.9453V10.5332C48.1621 9.9668 47.332 9.03906 45.6719 7.75V6.8418H47.3418C47.5176 6.8418 47.6055 6.91992 47.6055 7.07617L48.1621 6.8418H58.1523L55.0762 9.85938V10.5332C55.0762 12.623 54.9004 14.3125 54.5488 15.6016C54.8418 16.0117 55.0176 17.7695 55.0762 20.875H55.1055V24.4492C55.1055 28.707 56.7363 30.8359 59.998 30.8359C62.0293 30.8359 63.2402 27.9258 63.6309 22.1055V20.875H63.6895ZM90.4961 15.1914C91.5117 11.7539 92.0195 9.77148 92.0195 9.24414C91.7852 9.24414 91.043 8.62891 89.793 7.39844V6.92969H92.6055C93.3672 6.92969 94.0996 6.85156 94.8027 6.69531C95.5254 6.85156 96.2676 6.92969 97.0293 6.92969H99.8125V7.39844C97.332 8.82422 95.7598 10.9824 95.0957 13.873L89.5293 32.1836V32.418C91.0137 33.4336 91.7559 34.127 91.7559 34.498C90.5254 34.9668 89.6953 35.2012 89.2656 35.2012H82.8496C81.1895 28.9512 79.8906 24.3906 78.9531 21.5195L79.2461 21.0801V20.582C79.2461 20.4453 79.1484 20.377 78.9531 20.377L79.2461 19.9082V18.9707C79.2461 18.3457 78.6016 17.3496 77.3125 15.9824C76.375 11.6465 75.6328 9.47852 75.0859 9.47852C73.0352 8.07227 72.0098 7.30078 72.0098 7.16406C72.0098 6.85156 72.1953 6.69531 72.5664 6.69531C74.5977 6.85156 75.6133 7.08594 75.6133 7.39844C76.2969 7.08594 77.0391 6.92969 77.8398 6.92969H81.7363C82.166 6.92969 82.5371 6.85156 82.8496 6.69531C83.1816 6.85156 83.5527 6.92969 83.9629 6.92969H85.6328V7.39844C85.2617 7.39844 84.4316 8.0918 83.1426 9.47852C83.1426 10.123 83.3281 10.8945 83.6992 11.793C83.3281 11.793 83.1426 11.9492 83.1426 12.2617C83.6895 12.2617 84.1582 13.3359 84.5488 15.4844L85.6328 19.4395L87.0391 25.709H87.3027C88.416 22.1348 89.4805 18.6289 90.4961 15.1914ZM98.3184 6.92969H103.562C104.598 6.96875 105.115 7.125 105.115 7.39844C106.248 7.24219 107.068 7.16406 107.576 7.16406C108.904 7.16406 110.447 7.32031 112.205 7.63281C112.342 7.16406 113.172 6.92969 114.695 6.92969H120.877C120.877 7.24219 120.975 7.39844 121.17 7.39844L120.877 7.86719V16.3926L121.17 18.0039L120.555 18.2383C117.352 13.1016 115.496 10.4844 114.988 10.3867H109.451V18.9414L110.066 18.707H111.297L111.912 18.9414C112.107 18.4922 113.24 17.9453 115.311 17.3008H115.926V17.5352C115.926 18.6875 115.828 21.3828 115.633 25.6211C115.828 25.9141 115.926 26.1387 115.926 26.2949L111.59 22.3984H109.451V31.5977C109.588 31.5977 110.203 31.6758 111.297 31.832C113.406 31.6758 114.637 31.5293 114.988 31.3926C114.988 31.5293 115.096 31.5977 115.311 31.5977C116.287 29.6055 117.322 28.6094 118.416 28.6094V28.375C118.416 27.8672 118.309 27.4863 118.094 27.2324C118.914 24.5762 119.842 22.9648 120.877 22.3984C120.877 23.7656 120.975 24.4492 121.17 24.4492L120.877 24.918V34.3809L121.17 34.8496L120.555 35.0547H114.373C114.178 35.0547 114.08 35.1328 114.08 35.2891L113.465 35.0547H109.451L107.898 34.8496V35.0547L107.283 34.8496C106.404 34.8496 103.416 34.9961 98.3184 35.2891L97.9961 34.8496C97.9961 34.6934 99.2363 33.7656 101.717 32.0664V25.6211C101.717 22.6328 102.02 20.0156 102.625 17.7695C102.02 16.1289 101.717 14.752 101.717 13.6387V9.94727L98.3184 7.39844V6.92969ZM140.799 6.95898L145.721 6.92969V7.51562C144.002 9.42969 142.898 10.8066 142.41 11.6465L132.625 30.9531C134.09 30.7578 136.053 30.8164 138.514 31.1289C142.498 26.3633 144.637 23.9805 144.93 23.9805V35.2891C143.035 35.2891 139.939 34.8984 135.643 34.1172C133.514 34.8984 130.418 35.2891 126.355 35.2891H122.781V34.7031C124.5 32.8086 125.604 31.4414 126.092 30.6016L129.285 23.8926C129.969 23.1309 130.76 22.5254 131.658 22.0762C131.541 21.7832 131.131 21.5781 130.428 21.4609L134.998 11.6465V11.0898H129.988C126.004 15.8555 123.865 18.2383 123.572 18.2383V6.92969C127.029 6.92969 130.545 7.125 134.119 7.51562C136.424 7.20312 138.357 7.01758 139.92 6.95898V8.74609L140.799 6.95898ZM157.879 6.92969H159.549C159.744 6.92969 159.842 7.00781 159.842 7.16406L160.398 6.92969H170.359L167.312 9.94727V10.6211C167.312 12.7109 167.127 14.4102 166.756 15.7188C167.127 16.207 167.312 17.2812 167.312 18.9414L167.869 18.707H173.406L173.963 18.9414V9.94727L170.916 6.92969H184.51C184.51 7.08594 183.309 8.0918 180.906 9.94727V12.4961C180.906 13.2188 180.623 13.7559 180.057 14.1074C180.623 15.416 180.906 16.334 180.906 16.8613V24.7129C180.906 25.0254 180.623 25.1816 180.057 25.1816C180.623 30.2598 181.18 32.7988 181.727 32.7988L183.66 34.2051C183.387 34.8105 183.113 35.1133 182.84 35.1133H174.52C173.855 35.1133 172.928 34.8887 171.736 34.4395V33.9707C172.107 33.9707 172.85 33.3555 173.963 32.125V22.4277H167.312V24.7129C166.766 26.4512 166.492 27.7695 166.492 28.668C167.039 29.8398 167.41 31.1484 167.605 32.5938C167.84 32.5938 168.758 33.3555 170.359 34.8789V35.1133H156.795V34.6738C159.197 33.4043 160.398 32.3203 160.398 31.4219V27.2617C160.398 27.1055 160.486 27.0273 160.662 27.0273C160.662 26.8711 160.574 26.793 160.398 26.793L161.219 22.8672C160.848 21.6562 160.662 20.7383 160.662 20.1133L160.926 18.502C160.574 18.502 160.398 18.3457 160.398 18.0332V10.6211C160.398 10.0742 159.559 9.15625 157.879 7.86719V6.92969ZM198.865 35.0547H190.662L194.266 32.0664V26.6758C192.762 23.3945 191.219 19.7227 189.637 15.6602L189.93 15.1914V14.7227C189.93 14.5859 189.832 14.5176 189.637 14.5176L189.93 14.0488V13.1113C189.93 12.5059 189.354 12.0273 188.201 11.6758C187.83 10.2109 187.371 9.47852 186.824 9.47852C184.773 8.07227 183.748 7.30078 183.748 7.16406C183.748 6.85156 183.934 6.69531 184.305 6.69531C186.336 6.85156 187.352 7.08594 187.352 7.39844C188.035 7.08594 188.777 6.92969 189.578 6.92969H193.475C193.904 6.92969 194.275 6.85156 194.588 6.69531C194.92 6.85156 195.291 6.92969 195.701 6.92969H197.371V7.39844C197.02 7.39844 196.189 8.0918 194.881 9.47852C194.881 10.123 195.066 10.8945 195.438 11.793C195.066 11.793 194.881 11.9492 194.881 12.2617C195.428 12.2617 195.965 13.209 196.492 15.1035L197.371 17.4766L198.074 20.0254H198.367C199.461 18.9316 200.516 16.998 201.531 14.2246C202.547 11.4316 203.055 9.77148 203.055 9.24414C202.82 9.24414 202.156 8.62891 201.062 7.39844V6.92969H204.344C205.105 6.92969 205.838 6.85156 206.541 6.69531C207.264 6.85156 208.016 6.92969 208.797 6.92969H211.551V7.39844C209.07 8.80469 207.498 10.3086 206.834 11.9102L200.711 24.127L200.887 30.6602C200.887 31.8906 202 33.1992 204.227 34.5859L204.461 35.0547H199.686L198.924 33.5605L198.865 35.0547ZM209.939 6.92969H213.221C215.135 6.92969 217.146 6.99805 219.256 7.13477C220.213 6.99805 221.121 6.92969 221.98 6.92969C230.203 6.92969 234.314 9.51758 234.314 14.6934C234.314 15.7285 233.68 16.9395 232.41 18.3262C230.613 20.6113 228.787 21.7539 226.932 21.7539V21.9883C229.119 25.0742 230.213 27.1348 230.213 28.1699C231.678 30.2402 233.504 31.9883 235.691 33.4141C235.691 33.707 235.877 33.8535 236.248 33.8535V34.0879C236.248 34.498 235.154 34.8008 232.967 34.9961C231.229 34.8594 229.578 34.791 228.016 34.791C223.348 27.6816 220.701 23.873 220.076 23.3652L220.34 24.5078V31.8027C222.039 33.4824 223.143 34.3223 223.65 34.3223V34.791H218.143C217.791 34.791 217.615 34.5566 217.615 34.0879C216.658 34.5566 214.373 34.8594 210.76 34.9961C210.408 34.8594 210.135 34.791 209.939 34.791V34.5566L213.484 31.5684V18.7949L213.777 17.418C213.582 17.1641 213.484 16.7832 213.484 16.2754V10.7969C213.484 9.99609 212.303 8.77539 209.939 7.13477V6.92969ZM220.076 10.5625L220.34 11.0312V18.7949L220.896 18.5605H221.98C225.633 18.5605 227.459 17.1934 227.459 14.459C227.459 11.7246 225.271 10.3574 220.896 10.3574H220.633L220.076 10.5625ZM252.889 20.875V9.94727L249.842 6.92969H263.436C263.436 7.08594 262.234 8.0918 259.832 9.94727V12.4961C259.832 13.2188 259.559 13.7559 259.012 14.1074C259.559 15.416 259.832 16.3438 259.832 16.8906L259.568 22.0469C259.451 26.5 258.025 29.4297 255.291 30.8359C255.291 32.6719 253.055 34.0391 248.582 34.9375C241.902 34.9375 238.064 30.6211 237.068 21.9883C237.791 20.6992 237.889 19.3516 237.361 17.9453V10.5332C237.361 9.9668 236.531 9.03906 234.871 7.75V6.8418H236.541C236.717 6.8418 236.805 6.91992 236.805 7.07617L237.361 6.8418H247.352L244.275 9.85938V10.5332C244.275 12.623 244.1 14.3125 243.748 15.6016C244.041 16.0117 244.217 17.7695 244.275 20.875H244.305V24.4492C244.305 28.707 245.936 30.8359 249.197 30.8359C251.229 30.8359 252.439 27.9258 252.83 22.1055V20.875H252.889ZM262.791 6.92969H277.381C277.381 7.125 276.033 8.12109 273.338 9.91797V12.6719C272.928 12.6719 272.723 12.75 272.723 12.9062C273.133 18.3164 273.338 21.666 273.338 22.9551V30.9824C273.416 31.2949 273.631 31.4512 273.982 31.4512H277.381C277.908 31.2754 279.881 27.6035 283.299 20.4355H283.914V30.3086C283.66 31.832 283.25 32.5938 282.684 32.5938L284.236 34.6445C283.826 34.8008 283.514 34.8789 283.299 34.8789C279.51 34.8789 276.814 34.957 275.213 35.1133C272.146 34.957 268.621 34.8789 264.637 34.8789H261.854V34.6445L265.896 31.6562V30.3086C265.896 29.2539 265.994 28.3359 266.189 27.5547C265.994 26.7539 265.896 25.8359 265.896 24.8008V24.5664C265.896 24.4102 265.789 24.332 265.574 24.332C265.789 24.1172 265.994 23.1309 266.189 21.373C265.994 17.8965 265.896 14.6152 265.896 11.5293V10.8262C265.896 10.6699 265.789 10.5918 265.574 10.5918L265.896 10.1523C265.877 9.87891 264.939 9.18555 263.084 8.07227L262.146 7.16406L262.791 6.92969ZM285.291 6.92969H290.535C291.57 6.96875 292.088 7.125 292.088 7.39844C293.221 7.24219 294.041 7.16406 294.549 7.16406C295.877 7.16406 297.42 7.32031 299.178 7.63281C299.314 7.16406 300.145 6.92969 301.668 6.92969H307.85C307.85 7.24219 307.947 7.39844 308.143 7.39844L307.85 7.86719V16.3926L308.143 18.0039L307.527 18.2383C304.324 13.1016 302.469 10.4844 301.961 10.3867H296.424V18.9414L297.039 18.707H298.27L298.885 18.9414C299.08 18.4922 300.213 17.9453 302.283 17.3008H302.898V17.5352C302.898 18.6875 302.801 21.3828 302.605 25.6211C302.801 25.9141 302.898 26.1387 302.898 26.2949L298.562 22.3984H296.424V31.5977C296.561 31.5977 297.176 31.6758 298.27 31.832C300.379 31.6758 301.609 31.5293 301.961 31.3926C301.961 31.5293 302.068 31.5977 302.283 31.5977C303.26 29.6055 304.295 28.6094 305.389 28.6094V28.375C305.389 27.8672 305.281 27.4863 305.066 27.2324C305.887 24.5762 306.814 22.9648 307.85 22.3984C307.85 23.7656 307.947 24.4492 308.143 24.4492L307.85 24.918V34.3809L308.143 34.8496L307.527 35.0547H301.346C301.15 35.0547 301.053 35.1328 301.053 35.2891L300.438 35.0547H296.424L294.871 34.8496V35.0547L294.256 34.8496C293.377 34.8496 290.389 34.9961 285.291 35.2891L284.969 34.8496C284.969 34.6934 286.209 33.7656 288.689 32.0664V25.6211C288.689 22.6328 288.992 20.0156 289.598 17.7695C288.992 16.1289 288.689 14.752 288.689 13.6387V9.94727L285.291 7.39844V6.92969Z" fill="#F9F7DC"/>
</g>
<g filter="url(#filter1_d_586_2373)">
<path d="M326.389 26.8213H327.121C327.772 26.8213 328.993 28.042 330.783 30.4834V31.1914C328.83 33.6328 327.854 35.3337 327.854 36.2939H327.121C326.356 36.2939 324.899 34.3571 322.751 30.4834L326.389 26.8213ZM323.752 21.4258C323.752 21.2305 323.654 21.1328 323.459 21.1328L323.752 20.5713V5.60547C323.752 4.07552 322.604 2.44792 320.31 0.722656L320.017 0.136719H334.396L330.661 3.87207V16.543C330.287 17.9102 330.1 18.6751 330.1 18.8379V19.9854C330.1 20.8154 329.473 22.2396 328.22 24.2578C328.22 24.4043 328.203 24.6403 328.171 24.9658L326.193 24.6484L323.752 21.4258Z" fill="#F9F7DC"/>
</g>
<defs>
<filter id="filter0_d_586_2373" x="0.898438" y="6.69531" width="313.244" height="36.7109" filterUnits="userSpaceOnUse" color-interpolation-filters="sRGB">
<feFlood flood-opacity="0" result="BackgroundImageFix"/>
<feColorMatrix in="SourceAlpha" type="matrix" values="0 0 0 0 0 0 0 0 0 0 0 0 0 0 0 0 0 0 127 0" result="hardAlpha"/>
<feOffset dx="2" dy="4"/>
<feGaussianBlur stdDeviation="2"/>
<feComposite in2="hardAlpha" operator="out"/>
<feColorMatrix type="matrix" values="0 0 0 0 0 0 0 0 0 0 0 0 0 0 0 0 0 0 0.25 0"/>
<feBlend mode="normal" in2="BackgroundImageFix" result="effect1_dropShadow_586_2373"/>
<feBlend mode="normal" in="SourceGraphic" in2="effect1_dropShadow_586_2373" result="shape"/>
</filter>
<filter id="filter1_d_586_2373" x="318.017" y="0.136719" width="22.3799" height="44.1572" filterUnits="userSpaceOnUse" color-interpolation-filters="sRGB">
<feFlood flood-opacity="0" result="BackgroundImageFix"/>
<feColorMatrix in="SourceAlpha" type="matrix" values="0 0 0 0 0 0 0 0 0 0 0 0 0 0 0 0 0 0 127 0" result="hardAlpha"/>
<feOffset dx="2" dy="4"/>
<feGaussianBlur stdDeviation="2"/>
<feComposite in2="hardAlpha" operator="out"/>
<feColorMatrix type="matrix" values="0 0 0 0 0 0 0 0 0 0 0 0 0 0 0 0 0 0 0.25 0"/>
<feBlend mode="normal" in2="BackgroundImageFix" result="effect1_dropShadow_586_2373"/>
<feBlend mode="normal" in="SourceGraphic" in2="effect1_dropShadow_586_2373" result="shape"/>
</filter>
</defs>
</svg>
